<?xml version="1.0" encoding="utf-8"?>
<!-- Generator: Adobe Illustrator 23.1.1, SVG Export Plug-In . SVG Version: 6.00 Build 0)  -->
<svg version="1.1" id="图层_1" xmlns="http://www.w3.org/2000/svg" xmlns:xlink="http://www.w3.org/1999/xlink" x="0px" y="0px"
	 viewBox="0 0 300 300" style="enable-background:new 0 0 300 300;" xml:space="preserve">
<style type="text/css">
	.st0{fill:#1F26E8;}
	.st1{fill:#EB8108;}
	.st2{fill:#FC655F;}
	.st3{fill:#2A1F7A;}
	.st4{fill:#F1B620;}
	.st5{fill:#4C5FA1;}
</style>
<g>
	<g>
		<path class="st0" d="M158.9,65c-53.1,0-96.1,43-96.1,96.1s43,96.1,96.1,96.1s96.1-43,96.1-96.1S212,65,158.9,65z M158.9,239
			c-43,0-77.9-34.9-77.9-77.9s34.9-77.9,77.9-77.9s77.9,34.9,77.9,77.9S201.9,239,158.9,239z"/>
		<path class="st0" d="M158.8,103.2c-32,0-57.9,25.9-57.9,57.9s25.9,57.9,57.9,57.9s57.9-25.9,57.9-57.9S190.8,103.2,158.8,103.2z
			 M158.8,203.2c-23.2,0-42-18.8-42-42s18.8-42,42-42s42,18.8,42,42S182,203.2,158.8,203.2z"/>
		<circle class="st1" cx="158.9" cy="161.1" r="12.8"/>
	</g>
	<g>
		<g>
			<polygon class="st2" points="11.7,28.2 20,30 16.9,22.1 34.7,37.1 37.9,45 29.5,43.3 			"/>
		</g>
		<g>
			
				<rect x="61.3" y="10" transform="matrix(0.6444 -0.7647 0.7647 0.6444 -27.8194 70.276)" class="st3" width="0.8" height="110.1"/>
		</g>
		<g>
			<polygon class="st4" points="114.2,109.3 107.5,105.5 100.7,101.6 102.5,99.5 104.4,97.3 109.3,103.3 			"/>
		</g>
	</g>
	<g>
		<g>
			<polygon class="st2" points="16.8,286.1 19.9,278.2 11.6,280 29.4,265 37.8,263.2 34.6,271.1 			"/>
		</g>
		<g>
			
				<rect x="7" y="242.5" transform="matrix(0.7648 -0.6443 0.6443 0.7648 -141.9944 96.9258)" class="st3" width="109.5" height="0.8"/>
		</g>
		<g>
			<polygon class="st5" points="114,198.8 109.1,204.8 104.2,210.8 102.4,208.7 100.6,206.5 107.3,202.7 			"/>
		</g>
	</g>
	<g>
		<g>
			<polygon class="st2" points="277.3,271.4 269.1,268.9 271.6,277.1 255.1,260.6 252.6,252.4 260.8,254.9 			"/>
		</g>
		<g>
			
				<rect x="230" y="175.5" transform="matrix(0.7071 -0.7071 0.7071 0.7071 -95.3491 230.3606)" class="st3" width="0.8" height="109.5"/>
		</g>
		<g>
			<polygon class="st5" points="182,182 188.3,186.3 194.7,190.7 192.7,192.7 190.7,194.7 186.3,188.3 			"/>
		</g>
	</g>
	<g>
		<g>
			<polygon class="st2" points="278.8,26 276.4,34.2 284.5,31.7 268.1,48.2 259.9,50.6 262.4,42.5 			"/>
		</g>
		<g>
			
				<rect x="182.9" y="72.4" transform="matrix(0.7071 -0.7071 0.7071 0.7071 18.2023 189.4659)" class="st3" width="109.8" height="0.8"/>
		</g>
		<g>
			<polygon class="st5" points="189.3,121.2 193.6,114.7 197.8,108.2 200.1,110.4 202.3,112.7 195.8,116.9 			"/>
		</g>
	</g>
</g>
</svg>
